# xmcd CD database file
#
# Track frame offsets:
#	150
#	17732
#	30000
#	47203
#	65404
#	73033
#	87631
#	121494
#	135561
#	160143
#	180916
#	205217
#	238510
#	260036
#	276706
#	295489
#	312152
#	333562
#
# Disc length: 4781 seconds
#
# Revision: 0
# Processed by: cddbd v1.5.2PL0 Copyright (c) Steve Scherf et al.
# Submitted via: Feurio! 1.68 - http://www.feurio.com
#
DISCID=1012ab12
DTITLE=Marvin Gaye - Stevie Wonder - What's Going On - Innervisions
DYEAR=1900
DGENRE=Soul
TTITLE0=Marvin Gaye  - What's Going On
TTITLE1=Marvin Gaye  - What's Happening Brother
TTITLE2=Marvin Gaye  - Flyin' High (In the Friendly Sky)
TTITLE3=Marvin Gaye  - Save the Children
TTITLE4=Marvin Gaye  -  God Is Love
TTITLE5=Marvin Gaye  - Mercy Mercy Me (The Ecology)
TTITLE6=Marvin Gaye  - Right On
TTITLE7=Marvin Gaye - Wholy Holy
TTITLE8=Marvin Gaye - Inner City Blues (Make Me Wanna Holler)   *
TTITLE9=Stevie Wonder - Too High
TTITLE10=Stevie Wonder - Visions
TTITLE11=Stevie Wonder - Living for the City
TTITLE12=Stevie Wonder - Golden Lady
TTITLE13=Stevie Wonder - Higher Ground
TTITLE14=Stevie Wonder - Jesus Children of America
TTITLE15=Stevie Wonder - All in Love is Fair
TTITLE16=Stevie Wonder - Don't You Worry 'Bout a Thing
TTITLE17=Stevie Wonder - He's Misstra Know It All
EXTD=
EXTT0=
EXTT1=
EXTT2=
EXTT3=
EXTT4=
EXTT5=
EXTT6=
EXTT7=
EXTT8=
EXTT9=
EXTT10=
EXTT11=
EXTT12=
EXTT13=
EXTT14=
EXTT15=
EXTT16=
EXTT17=
PLAYORDER=
